<mxfile host="app.diagrams.net" modified="2023-09-04T11:04:26.920Z" agent="Mozilla/5.0 (X11; Ubuntu; Linux x86_64; rv:109.0) Gecko/20100101 Firefox/117.0" version="21.7.2" etag="DRvdNeRQp0G46KcnbBvv" type="github">
  <diagram name="Page-1" id="eSQy44bR49oJ5Hq87goh">
    <mxGraphModel>
      <root>
        <mxCell id="0" />
        <mxCell id="1" parent="0" />
      </root>
    </mxGraphModel>
  </diagram>
</mxfile>
